<?xml version="1.0" encoding="UTF-8"?>
<svg id="Layer_1" data-name="Layer 1" xmlns="http://www.w3.org/2000/svg" viewBox="0 0 198 198">
  <defs>
    <style>
      .cls-1 {
        fill: #f1a01f;
      }
    </style>
  </defs>
  <path class="cls-1" d="M50.53,99h3.08c8.36,0,15.88,3.19,22.56,9.57,6.67,6.38,10.01,14.34,10.01,23.88s-3.34,17.13-10.01,23.22c-6.68,6.09-14.93,9.13-24.76,9.13-10.71,0-19.62-4.29-26.74-12.87-7.12-8.58-10.67-20.79-10.67-36.64,0-14.52,3.11-28.13,9.35-40.82,6.23-12.69,13.86-22.74,22.89-30.15,9.02-7.41,17.05-11.11,24.1-11.11,4.69,0,8.36,1.4,11,4.18,2.64,2.79,3.96,6.38,3.96,10.78,0,6.46-2.86,11.22-8.58,14.3-7.78,4.26-13.94,9.24-18.48,14.96-4.55,5.72-7.12,12.91-7.7,21.57ZM147.79,99h2.86c8.21,0,15.66,3.19,22.34,9.57,6.67,6.38,10.01,14.34,10.01,23.88s-3.34,17.02-10.01,23.33c-6.68,6.31-14.93,9.46-24.76,9.46-10.86,0-19.8-4.4-26.85-13.2s-10.56-21.05-10.56-36.75c0-11.29,1.83-21.93,5.5-31.91,3.66-9.97,8.4-18.67,14.19-26.08,5.79-7.41,12.03-13.28,18.7-17.6,6.67-4.33,12.65-6.49,17.93-6.49,4.84,0,8.54,1.36,11.11,4.07,2.56,2.72,3.85,6.35,3.85,10.89,0,6.6-2.86,11.37-8.58,14.3-8.07,4.55-14.16,9.57-18.26,15.07-4.11,5.5-6.6,12.65-7.48,21.46Z"/>
</svg>